# xmcd
#
# Track frame offsets:
# 150
# 18846
# 37542
#
# Disc length: 681 seconds
#
# Revision: 1
# Processed by: cddbd v1.5.2PL0 Copyright (c) Steve Scherf et al.
# Submitted via: CedeCatalogueitor 2.6.0.6 http://personales.ya.com/cdcatalogueitor
#
DISCID=0f02a703
DTITLE=Nickel Eye - Brandy Of The Damned
DYEAR=1900
DGENRE=
TTITLE0=Brandy Of The Damned
TTITLE1=Brandy Of The Damned
TTITLE2=Brandy Of The Damned
EXTD=
EXTT0=
EXTT1=
EXTT2=
PLAYORDER=
